# xmcd
#
# Track frame offsets: 
#        150
#        8926
#        20051
#        35748
#        46009
#        66565
#        77578
#        94244
#        106527
#        118299
#        132084
#        154693
#        167131
#        185288
#        201518
#        220109
#        241516
#        256459
#        267645
#
# Disc length: 3840 seconds
#
# Revision: 0
# Processed by: cddbd v1.5.2PL0 Copyright (c) Steve Scherf et al.
# Submitted via: ExactAudioCopyFreeDBPlugin 1.0
#
DISCID=0a0efe13
DTITLE=Cuby and Blizzards - Non Album Singles (A&B Sides) and Rarities 196
DTITLE=5 -1968
DYEAR=1968
DGENRE=Blues
TTITLE0=Stumble and Fall
TTITLE1=I'm So Restless
TTITLE2=L.S.D. (Got A Million Dollars)
TTITLE3=Your Body Not Your Soul
TTITLE4=Back Home
TTITLE5=Sweet Mary
TTITLE6=You Don't Know
TTITLE7=Richard Cory
TTITLE8=Feeling Like A Suit-Case
TTITLE9=Distant Smile
TTITLE10=Don't Know Which Way To Go
TTITLE11=The Sunshine Of Your Shadow
TTITLE12=Crying Tears
TTITLE13=Nostalgic Toilet
TTITLE14=116 A Queensway
TTITLE15=King Of The World (USA Version)
TTITLE16=Big Blue-Eyed Girl (USA Version)
TTITLE17=Going Home (USA Version)
TTITLE18=No Shoes (USA Version)
EXTD=
EXTT0=
EXTT1=
EXTT2=
EXTT3=
EXTT4=
EXTT5=
EXTT6=
EXTT7=
EXTT8=
EXTT9=
EXTT10=
EXTT11=
EXTT12=
EXTT13=
EXTT14=
EXTT15=
EXTT16=
EXTT17=
EXTT18=
PLAYORDER=
